<svg viewBox="0 0 100 100" fill="none" xmlns="http://www.w3.org/2000/svg">
  <defs>
    <linearGradient id="g" x1="0%" y1="0%" x2="100%" y2="100%">
      <stop offset="0%" stop-color="#7c3aed"/>
      <stop offset="50%" stop-color="#ec4899"/>
      <stop offset="100%" stop-color="#f59e0b"/>
    </linearGradient>
  </defs>

  <!-- Dark background -->
  <circle cx="50" cy="50" r="48" fill="#0a0a0a"/>

  <!-- Outer Enso - incomplete circle for wabi-sabi aesthetic -->
  <path d="M50 6 C78 6 94 22 94 50 C94 78 78 94 50 94 C22 94 6 78 6 50" stroke="url(#g)" stroke-width="3" stroke-linecap="round" fill="none"/>

  <!-- Inner mon-style decorative ring -->
  <circle cx="50" cy="50" r="35" stroke="url(#g)" stroke-width="1" stroke-dasharray="3 6" fill="none" opacity="0.5"/>

  <!-- The "N" - proper calligraphic N -->
  <path d="M30 72 L30 28 L70 72 L70 28" stroke="url(#g)" stroke-width="6" stroke-linecap="round" stroke-linejoin="round" fill="none"/>

  <!-- Brush accent dots at corners -->
  <circle cx="30" cy="28" r="4" fill="url(#g)"/>
  <circle cx="70" cy="28" r="4" fill="url(#g)"/>
  <circle cx="30" cy="72" r="4" fill="url(#g)"/>
  <circle cx="70" cy="72" r="4" fill="url(#g)"/>

  <!-- Center tomoe-inspired accent -->
  <path d="M50 42 Q55 47 50 52 Q45 47 50 42" fill="url(#g)" opacity="0.7"/>
</svg>
